<svg xmlns="http://www.w3.org/2000/svg" width="1152" height="420" viewBox="0 0 1152 420"><rect x="455.52" y="64" width="60.96" height="28" rx="6" fill="#0d2a18" opacity=".72"/><text x="486.0" y="84" font-family="DejaVu Sans" font-weight="bold" font-size="18" fill="#9ff09f" text-anchor="middle">PLED</text><rect x="443.2" y="90" width="25.6" height="30" rx="6" fill="#0d2a18" opacity=".72"/><text x="456" y="112" font-family="DejaVu Sans" font-weight="bold" font-size="20" fill="#9ff09f" text-anchor="middle">+</text><rect x="503.2" y="90" width="25.6" height="30" rx="6" fill="#0d2a18" opacity=".72"/><text x="516" y="112" font-family="DejaVu Sans" font-weight="bold" font-size="20" fill="#f6f0dc" text-anchor="middle">−</text><rect x="563.28" y="64" width="85.44000000000001" height="28" rx="6" fill="#0d2a18" opacity=".72"/><text x="606.0" y="84" font-family="DejaVu Sans" font-weight="bold" font-size="18" fill="#ffd36b" text-anchor="middle">PWR SW</text><rect x="676.74" y="97" width="38.52" height="23" rx="6" fill="#0d2a18" opacity=".72"/><text x="696" y="112" font-family="DejaVu Sans" font-weight="bold" font-size="13" fill="#9a9aa2" text-anchor="middle">KEY</text><rect x="461.64" y="384" width="48.720000000000006" height="28" rx="6" fill="#0d2a18" opacity=".72"/><text x="486.0" y="404" font-family="DejaVu Sans" font-weight="bold" font-size="18" fill="#9fd8ff" text-anchor="middle">HDD</text><rect x="442.52" y="338" width="26.96" height="32" rx="6" fill="#0d2a18" opacity=".72"/><text x="456" y="362" font-family="DejaVu Sans" font-weight="bold" font-size="22" fill="#9fd8ff" text-anchor="middle">+</text><rect x="502.52" y="338" width="26.96" height="32" rx="6" fill="#0d2a18" opacity=".72"/><text x="516" y="362" font-family="DejaVu Sans" font-weight="bold" font-size="22" fill="#f6f0dc" text-anchor="middle">−</text><rect x="569.4" y="384" width="73.2" height="28" rx="6" fill="#0d2a18" opacity=".72"/><text x="606.0" y="404" font-family="DejaVu Sans" font-weight="bold" font-size="18" fill="#ff9f9f" text-anchor="middle">RESET</text><rect x="681.16" y="347" width="29.68" height="23" rx="6" fill="#0d2a18" opacity=".72"/><text x="696" y="362" font-family="DejaVu Sans" font-weight="bold" font-size="13" fill="#9a9aa2" text-anchor="middle">NC</text><rect x="758.3" y="183" width="83.4" height="25" rx="6" fill="#0d2a18" opacity=".72"/><text x="800" y="200" font-family="DejaVu Sans" font-weight="bold" font-size="15" fill="#f6f0dc" text-anchor="middle">F_PANEL</text></svg>